<svg xmlns="http://www.w3.org/2000/svg" xmlns:xlink="http://www.w3.org/1999/xlink" width="1760" height="1360"><g transform="translate(0 0)"><path d="M0 0h1760v1360H0z" fill="#fff"/><path d="M480 220c0 11.05-8.95 20-20 20s-20-8.95-20-20 8.95-20 20-20 20 8.95 20 20z" stroke="#666" stroke-width="2"/><path d="M460 240v50" stroke="#999" stroke-width="2" fill="none"/><path d="M460 240h-1v-.13zm1 0h-1l1-.04zM460 290l-4.64-14.27h9.28z" fill="#999"/><path d="M461.05 290h-2.1L454 274.73h12zm-4.3-13.27l3.25 10.03 3.26-10.03z" fill="#999"/><path d="M396 290c-8.84 0-16 7.16-16 16v48c0 8.84 7.16 16 16 16h128c8.84 0 16-7.16 16-16v-48c0-8.84-7.16-16-16-16z" stroke="#666" stroke-width="2" fill="#a3d977"/><use xlink:href="#a" transform="matrix(1,0,0,1,388,298) translate(25.055555555555557 38.66666666666667)"/><use xlink:href="#b" transform="matrix(1,0,0,1,388,298) translate(56.351851851851855 38.66666666666667)"/><use xlink:href="#c" transform="matrix(1,0,0,1,388,298) translate(87.64814814814815 38.66666666666667)"/><path d="M460 370v90" stroke="#999" stroke-width="2" fill="none"/><path d="M460 460l-4.64-14.27h9.28z" fill="#999"/><path d="M460.37 462.1l-.7.1-5.68-17.47h12zm-3.63-15.37l3.26 10.03 3.26-10.03z" fill="#999"/><use xlink:href="#d" transform="matrix(1,0,0,1,293.4814814814815,386.76800000000003) translate(0.0049999999999954525 26.66666666666667)"/><use xlink:href="#e" transform="matrix(1,0,0,1,293.4814814814815,386.76800000000003) translate(31.301296296296293 26.66666666666667)"/><use xlink:href="#f" transform="matrix(1,0,0,1,293.4814814814815,386.76800000000003) translate(62.59759259259259 26.66666666666667)"/><use xlink:href="#g" transform="matrix(1,0,0,1,293.4814814814815,386.76800000000003) translate(95.93092592592592 26.66666666666667)"/><use xlink:href="#h" transform="matrix(1,0,0,1,293.4814814814815,386.76800000000003) translate(127.22722222222222 26.66666666666667)"/><path d="M456.46 463.54c1.96-1.96 5.12-1.96 7.08 0l12.92 12.92c1.96 1.96 1.96 5.12 0 7.08l-12.92 12.92c-1.96 1.96-5.12 1.96-7.08 0l-12.92-12.92c-1.96-1.96-1.96-5.12 0-7.08z" stroke="#666" stroke-width="2" fill="#fff"/><path d="M480 480h95c2.76 0 5-2.24 5-5V335c0-2.76-2.24-5-5-5h-35" stroke="#999" stroke-width="2" fill="none"/><path d="M480 481h-2.26l.16-.5-.17-1.5H480zM554.27 334.64L540 330l14.27-4.64z" fill="#999"/><path d="M555.27 336L540 331.06v-2.1l15.27-4.96zm-12.03-6l10.03 3.26v-6.52z" fill="#999"/><path fill="#fff" d="M548.7 389.14h62.6v40h-62.6z"/><use xlink:href="#i" transform="matrix(1,0,0,1,548.7037037037037,389.1416666666667) translate(0 26.66666666666667)"/><use xlink:href="#j" transform="matrix(1,0,0,1,548.7037037037037,389.1416666666667) translate(31.296296296296298 26.66666666666667)"/><path d="M460 498.85v127.3" stroke="#999" stroke-width="2" fill="none"/><path d="M461 498.85h-2v-1.1l.5.15 1.5-.17zM460 626.15l-4.64-14.27h9.28z" fill="#999"/><path d="M461.05 626.15h-2.1L454 610.88h12zm-4.3-13.27L460 622.9l3.26-10.02z" fill="#999"/><path fill="#fff" d="M428.7 542.5h62.6v40h-62.6z"/><use xlink:href="#k" transform="matrix(1,0,0,1,428.7037037037037,542.5) translate(0 26.66666666666667)"/><use xlink:href="#l" transform="matrix(1,0,0,1,428.7037037037037,542.5) translate(31.296296296296298 26.66666666666667)"/><path d="M376 626.15c-8.84 0-16 7.16-16 16v48c0 8.83 7.16 16 16 16h168c8.84 0 16-7.17 16-16v-48c0-8.84-7.16-16-16-16z" stroke="#666" stroke-width="2" fill="#ff8f80"/><g><use xlink:href="#m" transform="matrix(1,0,0,1,368,634.1484233258726) translate(29.407407407407405 38.66666666666667)"/><use xlink:href="#n" transform="matrix(1,0,0,1,368,634.1484233258726) translate(60.7037037037037 38.66666666666667)"/><use xlink:href="#o" transform="matrix(1,0,0,1,368,634.1484233258726) translate(92 38.66666666666667)"/><use xlink:href="#p" transform="matrix(1,0,0,1,368,634.1484233258726) translate(123.29629629629629 38.66666666666667)"/></g><path d="M460 706.15v45" stroke="#999" stroke-width="2" fill="none"/><path d="M460 751.15l-4.64-14.27h9.28z" fill="#999"/><path d="M461 751.27l-1-.12-1.04.04-4.97-15.32h12zm-4.26-13.4l3.26 10.04 3.26-10.02z" fill="#999"/><path d="M480 771.15c0 11.04-8.95 20-20 20s-20-8.96-20-20c0-11.05 8.95-20 20-20s20 8.95 20 20z" stroke="#666" stroke-width="2" fill="#fff"/><path d="M472 771.15c0 6.63-5.37 12-12 12s-12-5.37-12-12 5.37-12 12-12 12 5.37 12 12z" stroke="#666" stroke-width="2"/><defs><path fill="#333" d="M150-94c5 38-6 64-47 52v85H73v-234H56v156H28v-187h45v-59h30v59h47v98h17v-143h141v29H199v20h96v27h-96v20h96v26h-96v21h118v30h-73c5 15 8 29 15 41 12-11 23-23 32-36l26 19c-14 19-25 28-42 43 12 18 30 31 48 43l-21 26c-46-30-76-75-90-136h-13v90l44-12 1 30c-32 11-68 21-105 28l-8-33 35-6v-97h-16zm-47 21c9-1 19 3 19-6v-112h-19v118" id="q"/><use transform="matrix(0.0925925925925926,0,0,0.0925925925925926,0,0)" xlink:href="#q" id="a"/><path fill="#333" d="M159 14c25-20 33-49 33-94l31 2c0 58-13 98-48 122l-17-28c-3 8-7 17-12 26l-27-26c31-55 25-144 26-231h59v-67h36v18h62v30h-62v19h60l21 13-14 55-32-6 9-32h-52v20l37-3 1 28-38 4c-4 25 12 21 33 21 16 1 14-15 16-28l34 10c-2 34-19 47-60 47-39 0-62-5-56-47l-21 2c0 59-4 103-19 145zM61-67l-7 22-30-9c7-22 13-43 18-64H19v-30h117v30H76l-6 22h56c-3 51 1 104-25 129-10 10-38 7-56 4L40 2c16 1 43 11 46-9 3-18 5-35 5-60H61zm-30-98v-104h98v104H31zM279 7c17 0 11-26 13-43l31 12c-4 34-3 66-45 63-24-2-43-3-43-29v-88h33v77c-1 7 4 8 11 8zM63-195h33v-45H63v45zm136 33v-23h-20v25" id="r"/><use transform="matrix(0.0925925925925926,0,0,0.0925925925925926,0,0)" xlink:href="#r" id="b"/><path fill="#333" d="M108-1c-5-14-8-28-14-41H69v-87h200v87h-29c-3 17-6 27-11 41h85v33H23V-1h85zm108-238c11-10 22-23 30-35l27 21-38 40c5 6 9 11 14 16 15-13 27-27 39-43l27 21-42 44c16 13 33 25 51 34l-22 29c-28-16-51-33-72-56v18H109v-15c-22 23-46 43-76 58l-18-29c23-10 42-24 59-40-14-14-26-23-41-35l22-23 42 33c11-11 19-24 26-38H41v-32h104l22 18c-11 26-27 50-44 72h95c-21-24-38-51-52-80l27-17c7 14 15 26 23 39zM104-71h130v-28H104v28zm89 70c4-13 8-27 11-41h-73l13 41h49" id="s"/><use transform="matrix(0.0925925925925926,0,0,0.0925925925925926,0,0)" xlink:href="#s" id="c"/><path fill="#333" d="M116-81c-3 17-10 34-16 48 14 14 30 26 53 32v-95H23v-30h291v30H190v29h97v31h-97V3l81-1c18-1 36-3 52-4l-11 35C226 34 125 49 85-4 74 15 62 30 45 44L21 19C52-9 70-44 80-90zm-52-66v-122h209v122H64zm38-27h134v-21H102v21zm0-46h134v-21H102v21" id="t"/><use transform="matrix(0.0925925925925926,0,0,0.0925925925925926,0,0)" xlink:href="#t" id="d"/><path fill="#333" d="M249 41V26H90v18H55V-99h230V41h-36zm-41-275c-7 10-15 18-23 27v99h-35v-67c-32 26-71 48-111 65l-18-32c58-20 107-52 142-92H34v-32h272v32h-98zM90-8h159v-59H90v59zm204-107c-35-25-67-47-105-67l19-26 108 64" id="u"/><use transform="matrix(0.0925925925925926,0,0,0.0925925925925926,0,0)" xlink:href="#u" id="e"/><path fill="#333" d="M274-71c5-17 5-41 17-48-2-9-10-9-16-18-7 9-22 9-38 8 5-17 5-38 20-46-4-7-12-9-18-20l-8 9h-67l19-53c3-3 20-9 5-13-6-2-13-5-20-10-7 28-15 54-22 76H47l5 9h91C111-92 85-53 18 10l1 3c32-25 59-50 79-75h207c-21 83 7 97-76 83v3c22 5 34 17 46 29 42-26 32-33 46-105 3-4 18-7 7-15-5-2-10-7-15-14-7 10-21 11-39 10zM160-177h71l-14 48h-77c6-13 13-29 20-48zM106-71c12-17 19-28 29-48h133l-12 48H106zm1-125c10-2 13-17 6-27-5-7-16-17-35-31 5 16 19 33 22 54 2 3 4 4 7 4zM99-27C95-2 68 13 56 33c7 15 23 7 32-8 7-12 12-29 15-52h-4zm57 58c20-21-1-41-23-64 2 17 15 36 17 59 2 3 3 5 6 5zm53-14c20-22-5-43-29-58 10 16 18 34 22 54 2 3 4 4 7 4zm55-15c11-4 10-20 0-29-6-5-17-18-29-22 12 17 15 21 21 44 2 5 4 7 8 7" id="v"/><use transform="matrix(0.0925925925925926,0,0,0.0925925925925926,0,0)" xlink:href="#v" id="f"/><path fill="#333" d="M187-280c33 36 83 62 138 76l-13 28-19-5v87H46v-85l-18 6-14-29c57-14 105-42 136-78h37zm56 320V30H96v15H63V-79h214V40h-34zM107-200v-7c-13 8-29 17-45 22h221c-19-7-37-14-53-23v8H107zM96 5h147v-18H96V5zm0-41h147v-18H96v18zm108-188c-13-9-25-20-35-31-10 11-22 22-35 31h70zm-6 97c8-10 13-21 19-33h-32v42h39zm-82 9h36v-42h-34c7 11 16 22 21 33zm130-35l-18 35h30v-42h-38zm-135 35c-6-11-12-23-20-32l22-10H80v42h31" id="w"/><use transform="matrix(0.0925925925925926,0,0,0.0925925925925926,0,0)" xlink:href="#w" id="g"/><path fill="#333" d="M227-13c27 12 60 20 93 26l-17 32c-41-8-79-22-109-41l16-17h-83l17 17C115 24 76 38 35 45L18 14c35-4 67-14 93-27H48v-161h240v161h-61zM63-192v-76h211v76H63zM83-41h170v-20H83v20zm16-178h140v-23H99v23zM83-85h170v-19H83v19zm0-43h170v-19H83v19" id="x"/><use transform="matrix(0.0925925925925926,0,0,0.0925925925925926,0,0)" xlink:href="#x" id="h"/><path fill="#333" d="M28-160c23-32 41-70 48-115l36 8c-3 14-7 29-12 45h51v-60h36v60h105v32H187v58h127v33H195c24 51 69 85 126 105l-17 34C243 19 200-22 170-74 141-18 95 20 33 45L16 12C75-9 119-45 143-99H24v-33h126c2-17 0-39 1-58H87c-8 17-17 34-28 50" id="y"/><use transform="matrix(0.0925925925925926,0,0,0.0925925925925926,0,0)" xlink:href="#y" id="i"/><path fill="#333" d="M147-149c19-39 35-83 40-134l38 7-11 49h102v32h-24c-3 57-12 102-35 142 19 23 40 44 67 59l-22 35c-26-19-47-38-66-62-20 25-44 46-72 65l-14-19-22 12c-13-20-24-40-35-63l30-14c9 17 19 30 29 45 25-15 45-35 61-58-14-23-24-50-33-77l-15 26-18-26v89H32v-228h115v120zm59-46c-11 36 14 76 27 106 14-30 20-65 22-106h-49zM15 24C28 6 44-17 51-40l32 14C72-1 60 24 45 44zm51-95h46v-38H66v38zm0-67h46v-36H66v36zm0-66h46v-35H66v35" id="z"/><use transform="matrix(0.0925925925925926,0,0,0.0925925925925926,0,0)" xlink:href="#z" id="j"/><path fill="#333" d="M277-3c12-5 15-25 20-40l28 21c-9 26-16 60-47 60-33 0-46-34-59-59-22 25-48 47-79 66l-25-27c36-20 66-44 90-75-13-42-19-88-24-138H85v41h79C157-92 188 2 95-21l-7-32c17 4 47 10 41-20l2-51H85C84-56 73 0 46 43L17 20c37-57 32-152 32-247h130l-1-55h34l2 55h44c-10-14-21-28-34-39l27-17 37 38-27 18h51v32h-96c2 35 6 69 14 99 13-24 24-49 32-77l33 12c-15 40-29 75-51 108 9 17 15 42 33 50" id="A"/><use transform="matrix(0.0925925925925926,0,0,0.0925925925925926,0,0)" xlink:href="#A" id="k"/><path fill="#333" d="M208 1c16 4 51 13 54-9 7-45 12-108 12-170h-50C221-69 191-3 129 46l-27-27c57-41 85-101 86-197h-41v-33h41v-71h37l-1 71h85L297 4c-2 37-44 39-82 32zM19-50c17-3 33-9 49-14v-152H26v-33h122v33h-45v140l51-21 1 34-93 38c-12 4-24 8-35 11" id="B"/><use transform="matrix(0.0925925925925926,0,0,0.0925925925925926,0,0)" xlink:href="#B" id="l"/><use transform="matrix(0.0925925925925926,0,0,0.0925925925925926,0,0)" xlink:href="#s" id="m"/><path fill="#333" d="M189-264C178-122 238-42 320 9l-26 31c-55-37-99-92-123-160C146-51 102 4 45 43L21 13c73-50 132-119 130-243H73v-34h116" id="C"/><use transform="matrix(0.0925925925925926,0,0,0.0925925925925926,0,0)" xlink:href="#C" id="n"/><path fill="#333" d="M161-147c27-26 51-53 72-82l29 19c-31 37-62 68-95 98l82-6-26-25 23-19c25 25 53 47 75 75l-24 23-24-29-87 7V44h-35V-84L36-78l-5-31 89-1 16-14c-25-19-56-42-86-57l20-25 34 21c17-15 30-31 43-49l-88 5-12-29c81-1 154-6 219-22l22 27c-37 7-76 13-116 17l12 7c-18 23-32 41-54 61 15 11 16 10 31 21zm67 77c27 25 58 48 92 65l-20 30c-36-21-67-48-96-75zM18 3c34-17 66-43 90-71l27 19C111-19 73 8 40 29" id="D"/><use transform="matrix(0.0925925925925926,0,0,0.0925925925925926,0,0)" xlink:href="#D" id="o"/><path fill="#333" d="M129-89l-5-19-23 2V44H68v-147c-17 1-32 2-47 3l-5-32 28-1 18-24-47-56 18-26 13 13c12-19 22-35 30-57l29 11c-12 26-24 47-39 69 6 6 10 10 15 17 14-21 26-41 37-63l27 15c-20 36-40 69-64 100 11 0 23-1 34-2l-10-25 24-9c10 24 17 43 24 70zm147-106c16 22 33 49 47 74l-28 19c-4-9-7-17-13-25l-129 13-7-33 22-1c10-21 17-39 25-60h-46v-32h65v-41h35v41h66v32h-84c-7 21-16 39-24 58l61-5c-5-10-11-17-17-25zM264 0c6 13 35 6 29-12 0-5 1-11 1-21l30 9c-2 38-6 67-51 62-24-2-41-3-41-25v-122h32V0zM129 19c41-20 51-64 48-128h34c4 75-12 128-59 154zM15 13C25-20 28-49 31-87l27 6C56-41 52-8 42 27zM135-87c6 24 11 45 13 73l-27 8c-2-27-5-51-11-75" id="E"/><use transform="matrix(0.0925925925925926,0,0,0.0925925925925926,0,0)" xlink:href="#E" id="p"/></defs></g></svg>